<?xml version="1.0" encoding="utf-8"?>
<!-- Generator: Adobe Illustrator 19.0.0, SVG Export Plug-In . SVG Version: 6.00 Build 0)  -->
<svg version="1.1" xmlns="http://www.w3.org/2000/svg" xmlns:xlink="http://www.w3.org/1999/xlink" x="0px" y="0px"
	 viewBox="-1245 501 171 171" style="enable-background:new -1245 501 171 171;" xml:space="preserve">
<style type="text/css">
	.st0{fill:none;stroke:#37D6A6;stroke-width:2;stroke-miterlimit:10;}
</style>
<g id="Layer_4">
	<g transform="translate(0,-952.36218)">
		<path class="st0" d="M-1232.5,1471.1c-1.9,0-3.5,1.6-3.5,3.5s1.6,3.5,3.5,3.5h18l18.3,86.4c0.4,2.1,1.9,3.9,3.6,3.9h86.9
			c1.8,0,3.5-1.6,3.5-3.5c0-1.8-1.7-3.5-3.5-3.5h-84l-2.9-13.9h93.9c1.6,0,3-1.2,3.4-2.7l12.2-52.1c0.5-2-1.3-4.2-3.4-4.2h-118.6
			l-3.1-14.7c-0.3-1.5-1.8-2.7-3.4-2.7H-1232.5z M-1203.7,1495.5h35.5v19.1h-31.4L-1203.7,1495.5z M-1161.3,1495.5h27.8v19.1h-27.8
			V1495.5z M-1126.5,1495.5h35.6l-4.5,19.1h-31.2V1495.5z M-1198.1,1521.5h29.9v19.1h-25.9L-1198.1,1521.5z M-1161.3,1521.5h27.8
			v19.1h-27.8V1521.5z M-1126.5,1521.5h29.5l-4.5,19.1h-25V1521.5z M-1175.2,1578.8c-8.6,0-15.6,7-15.6,15.6c0,8.6,7,15.6,15.6,15.6
			c8.6,0,15.6-7,15.6-15.6C-1159.5,1585.9-1166.6,1578.8-1175.2,1578.8z M-1123,1578.8c-8.6,0-15.6,7-15.6,15.6
			c0,8.6,7,15.6,15.6,15.6c8.6,0,15.6-7,15.6-15.6C-1107.4,1585.9-1114.4,1578.8-1123,1578.8z M-1175.2,1585.8
			c4.8,0,8.7,3.8,8.7,8.7c0,4.8-3.8,8.7-8.7,8.7c-4.8,0-8.7-3.8-8.7-8.7C-1183.8,1589.6-1180,1585.8-1175.2,1585.8z M-1123,1585.8
			c4.8,0,8.7,3.8,8.7,8.7c0,4.8-3.8,8.7-8.7,8.7s-8.7-3.8-8.7-8.7C-1131.7,1589.6-1127.9,1585.8-1123,1585.8z"/>
	</g>
</g>
<g id="rulers">
</g>
</svg>
