<?xml version="1.0" encoding="utf-8"?>
<!-- Generator: Adobe Illustrator 19.0.0, SVG Export Plug-In . SVG Version: 6.00 Build 0)  -->
<svg version="1.1" id="Layer_2_1_" xmlns="http://www.w3.org/2000/svg" xmlns:xlink="http://www.w3.org/1999/xlink" x="0px" y="0px"
	 viewBox="-1476 501 357 171" style="enable-background:new -1476 501 357 171;" xml:space="preserve">
<style type="text/css">
	.st0{fill-rule:evenodd;clip-rule:evenodd;fill:#0074BD;}
	.st1{fill-rule:evenodd;clip-rule:evenodd;fill:#818894;}
	.st2{fill-rule:evenodd;clip-rule:evenodd;fill:#C2DEEE;}
</style>
<path class="st0" d="M-1406,555.1c10.1,0.1,20.2,0,30.3,0c4.6,0,10.3,0.1,14.9-0.3c5.1-0.5,5.7-4.4,5.7-9.5c0-5.2-0.5-8.9-5.5-9.6
	c-2.1-0.3-5.1-0.2-7.3-0.2c-12.2-0.1-26.3-0.3-38.2,0L-1406,555.1z M-1430.4,595.5l24.4,0l0-20.4c6.7-0.1,37.9-0.4,43.9,0.3
	c6,0.7,6.4,5.8,6.5,11.1c0.1,2.6-0.2,6.4,0.1,8.9l24,0.1l0-1c-1.1-0.4-2.4-0.7-3.5-1.2c-1.2-0.5-2.3-1.1-3.2-1.7
	c-4.6-3.2-5.9-7.3-6.4-13c-0.2-2.3-0.5-7.4-0.2-9.6l23.6,0c0.4,4.4,0.3,7.2,4.1,8.4c2.8,0.9,8.3,0.8,11.5,0.8c8.3,0.1,16.7,0.2,25,0
	c3.6-0.1,8-0.1,9.5-2.9c0.9-1.8,1.7-7.8-1.8-9.3c-2.8-1.2-7.9-1-11.3-1.1c-4.1-0.1-8.1-0.3-12.1-0.5c-7.9-0.3-27.9-0.6-35-2.4
	c-3.8-1-6-2.3-8.1-4.5c-4-4.1-5.1-12.6-4.8-20c0.3-5.7,1.2-12.4,5.1-16.7c0.4-0.4,1.4-1.3,1.6-1.7c-4.8-4-13-3.8-20.3-3.8l-60.5-0.1
	c-3.7,0-8.6-0.3-12.2,0L-1430.4,595.5z"/>
<path class="st1" d="M-1256.2,518.9l1.9,1.6c1.8,1.6,3.1,4.3,3.8,6.9c1.1,4.4,1.1,8.4,1,13.1c-0.7,0.2-22.8,0.2-23.7,0
	c-0.1-3.5-0.3-5.8-3-6.8c-2.2-0.9-6.2-1-8.9-1c-6.6-0.1-13.2-0.2-19.8,0c-3.1,0.1-6.3,0.1-9.3,0.4c-3.2,0.3-5.4,1-6,4
	c-0.7,3.3,0.3,5.9,2.7,6.8c1.7,0.7,6.9,0.9,9,1c12.6,0.7,25.4,0.8,38,1.6c5.7,0.4,11.9,1,16.1,3.7c5,3.1,6.4,7,7.3,12.6
	c2.3,0.8,12.3,0.9,15.4,1c5.4,0.2,10.7,0.5,16,0.7c5.4,0.2,10.7,0.5,16,0.6c2.3,0,5.5,0.2,7.3,1c2,0.9,2.6,3.1,2.4,5.8
	c-0.3,6.1-4.1,6.1-10.1,6.3c-5.5,0.1-11.2,0.2-16.7,0.1c-5.5-0.1-10.9-0.1-16.3-0.3c-8-0.3-7.1-4.3-7.8-9l-5.9,0
	c-0.5,5.3,0.2,8.5-1.6,14.6c-0.9,3-2.4,5.6-4.7,7.6l-2.3,1.8c7.6,4.3,38.4,3.9,49.5,3.7c5.8-0.1,11.7-0.1,17.5-0.6
	c12-1,18.7-3.9,21-14.6c1.4-6.1,1.6-17.8-0.7-24c-2.6-6.9-8.7-9.6-16.2-10.6c-8.5-1.1-24.7-1.3-34-1.7c-5.5-0.2-11.6-0.3-17-1
	c-2.7-0.3-4.4-1.3-4.8-4.1c-0.4-2.9,0.4-5.5,2.5-6.4c3.9-1.7,28.9-1.3,34.4-1.1c8.6,0.4,9.8,1,10.1,7.9l23.7,0
	c0.1-10.2-0.3-18.1-7.6-22c-6.9-3.7-16.5-4-25.3-4.3c-9.7-0.3-19.4-0.1-29.1,0.1C-1238.9,514.4-1251,514.6-1256.2,518.9"/>
<path class="st1" d="M-1246.1,614.3l9.8-0.1c1.2-0.1,1.4-0.8,1.5-2c0.1-3-1.8-2.3-4.4-2.3c-2,0-4.9-0.2-6.8,0L-1246.1,614.3z
	 M-1251.5,623.2l5.4,0l0-4.5c2.1-0.2,5.5-0.1,7.7,0c3.9,0,3.5,0.5,3.5,4.4c0.9,0.3,4.2,0.1,5.3,0.1c0-1.2,0.1-3.5-0.1-4.7
	c-0.3-1.8-1.2-1.5-2.5-2.2c2.7-1,3-1.9,2.8-6c-0.1-3.1-1.1-4.6-4.3-4.7c-5.8-0.2-12-0.1-17.8-0.1L-1251.5,623.2z"/>
<path class="st1" d="M-1465.8,614.3l9.8-0.1c1.2-0.1,1.4-0.8,1.5-2c0.1-3-1.8-2.3-4.4-2.3c-2.1,0-4.8-0.1-6.9,0L-1465.8,614.3z
	 M-1471.2,623.2l5.4,0l0-4.5c2.3-0.2,5.3-0.1,7.7,0c3.9,0,3.4,0.6,3.5,4.4l5.3,0.1c0-1.3,0.1-3.6-0.1-4.7c-0.3-1.8-1.3-1.5-2.5-2.2
	c2.7-1,3-1.8,2.8-6c-0.1-3.1-1.1-4.6-4.3-4.7c-5.8-0.2-12,0-17.9-0.1L-1471.2,623.2z"/>
<path class="st1" d="M-1303.9,617.4l-5.1,0c-0.2,1.1,0,3,0.4,3.9c1.4,2.7,7.8,2.3,11,2.2c6.6-0.1,11.1,0.7,10.2-7.3
	c-0.3-2.9-2-3.6-5-3.8c-2.8-0.2-5.7-0.2-8.5-0.4c-1.3-0.1-3,0.1-2.8-1.5c0.2-1.3,2-1.1,3.3-1.2c1.5,0,3,0,4.4,0
	c2.1,0.1,2.5-0.1,2.8,1.8l5.2,0c0.2-3.2-0.5-4.9-3.3-5.5c-2.4-0.5-5.9-0.4-8.4-0.4c-2.5,0-6-0.2-7.7,1.1c-1.5,1.3-1.9,4.7-1.2,7.1
	c0.8,2.6,3.2,2.6,6.1,2.7c2.7,0.1,5.9,0.1,8.5,0.3c2.2,0.2,1.3,2.3,1,2.5c-0.8,0.7-7,0.4-8.4,0.4
	C-1303.5,619.3-1303.6,619.3-1303.9,617.4"/>
<path class="st1" d="M-1379.9,616.3l7.8,0l-3.4-6.7l-0.9,0c-0.5,0.3-1.5,2.5-1.9,3.2C-1378.7,613.8-1379.6,615.4-1379.9,616.3
	 M-1389.5,623.2l6.1,0l1.4-3l11.8,0l1.1,2.3c0.2,0.4,0.2,0.7,0.7,0.7l5.8,0l-6.9-13.3c-0.7-1.3-1.8-3.1-2.3-4.4l-8.2,0
	c-0.6,0.1-4.7,8.3-4.9,8.7c-0.8,1.5-1.6,2.9-2.3,4.4C-1387.7,619.7-1389.2,622.1-1389.5,623.2z"/>
<path class="st1" d="M-1440.8,623.3l19.6,0l0.1-4.2l-14.4,0l0-2.9l13.6,0l0-3.8l-13.6-0.1l0-2.5l14.3-0.1l0-4.2l-19.7,0
	C-1441,607.7-1441.2,622.3-1440.8,623.3"/>
<polygon class="st1" points="-1279.3,623.3 -1259.5,623.2 -1259.5,619 -1273.9,619 -1273.9,616.2 -1260.4,616.1 -1260.3,612.2 
	-1273.9,612.2 -1273.9,609.7 -1259.6,609.7 -1259.6,605.5 -1279.3,605.5 "/>
<polygon class="st1" points="-1145.1,623.2 -1125.3,623.2 -1125.3,619 -1139.7,619 -1139.7,616.1 -1126.2,616.1 -1126.1,612.3 
	-1139.7,612.2 -1139.7,609.7 -1125.4,609.7 -1125.4,605.5 -1145.1,605.5 "/>
<path class="st1" d="M-1153.3,616.4l-5.3,0c-0.6,2.6,0.6,2.8-6.8,2.7c-4.4-0.1-5.1,0.2-5.1-4.4c0-4.6,0.1-5,4.5-5
	c1.1,0,5.6-0.2,6.5,0.5c0.3,0.2,0.3,0.4,0.4,0.7c0.3,1.4-0.6,1,5.5,1c0-3.5-0.2-5.6-3.5-6.3c-2.4-0.5-6.7-0.4-9.3-0.3
	c-9.1,0.2-9.7,0.6-9.6,9.6c0,3-0.2,6.4,2,7.6c2.2,1.2,5.8,1,8.6,1c3.9,0.1,10.4,0.7,11.7-2.7C-1153.2,619.7-1153,617.7-1153.3,616.4
	"/>
<path class="st1" d="M-1213.9,623.2l8.2,0l8.6-17.7l-5.8,0c-0.6,0.8-5.7,11.6-6.5,13.3l-1.1,0c-1.1-2.8-4.1-8.3-5.7-11.6
	c-0.2-0.3-0.3-0.6-0.4-0.9c-0.3-0.5-0.2-0.5-0.6-0.8l-5.6,0c0.3,1.1,3.6,7.5,4.4,9C-1217.9,615.7-1214.5,622.9-1213.9,623.2"/>
<rect x="-1471.2" y="640.3" class="st0" width="54.4" height="3.4"/>
<polygon class="st0" points="-1179.7,643.7 -1125.4,643.7 -1125.3,640.3 -1179.8,640.3 "/>
<path class="st1" d="M-1414.5,610l7.8,0c0.4,2.1-0.3,11.7,0.2,13.2l5.5,0l0.1-13.2l7.8,0c0.3-0.9,0.1-3.5,0.1-4.6l-21.5,0
	L-1414.5,610z"/>
<path class="st1" d="M-1341,623.2l18.3,0c0-1,0.2-3.7-0.1-4.5l-12.5,0l0-13.2l-5.6,0C-1341.3,606.7-1341,620.8-1341,623.2"/>
<path class="st0" d="M-1248,649.9l2.1,0l0-13.8c1.3-0.1,1.5,0.9,2.8,2.9l5.9,9.2c0.7,1.1,1.1,2.2,2.7,1.8c0.5-0.1,4.1-6.1,4.6-6.9
	c0.8-1.3,1.4-2.2,2.2-3.5c0.6-1,1.5-2.6,2.3-3.4l0.8,0l0.1,13.8l2.1,0l0-15.8c-5.1,0-3.8-0.8-6.2,3.2l-6.4,10.1
	c-0.6-0.6-6.8-10.5-8.1-12.5c-0.8-1.2-1-0.8-4.7-0.8L-1248,649.9z"/>
<path class="st0" d="M-1340.1,645.1l-2-0.1c-0.4,3.1,0.7,4.5,3.5,4.8c2.3,0.3,5.8,0.2,8.1,0.1c2.8-0.2,5-0.4,5.7-2.9
	c0.7-2.6-0.1-5.1-2.4-5.7c-2.9-0.7-9.7,0.2-11.8-0.7c-1-0.5-1.2-2.1-0.8-3.2c0.9-2.3,9.6-1.6,11.1-1.2c1.7,0.5,1.2,1.1,1.6,2.6
	l1.9,0c1-5.8-7.5-5-11.8-4.6c-2.7,0.2-4.8,0.8-5.1,3.5c-0.7,6.4,5.7,5.2,11.6,5.2c1.3,0,2.9,0,3.4,0.9c0.5,0.8,0.4,2.6-0.2,3.4
	c-1,1.3-5.5,1-7.5,1C-1340.2,648.1-1339.9,648-1340.1,645.1"/>
<path class="st0" d="M-1205.3,645l-2,0c-0.2,3.1,0.6,4.4,3.4,4.8c2.3,0.3,5.8,0.2,8.1,0.1c2.6-0.1,5-0.4,5.7-2.7
	c0.6-1.9,0.5-5.2-2.3-5.9c-2.9-0.7-9.8,0.2-11.9-0.7c-1-0.5-1.2-2.1-0.8-3.2c0.7-1.8,4.8-1.5,6.9-1.5c1.3,0,2.9,0,4,0.3
	c1.5,0.4,1.6,0.9,1.6,2.6l2.1,0c0-3.1-1.1-4.2-4-4.5c-2.4-0.3-5.8-0.3-8.3,0c-2.6,0.3-4.5,0.9-4.7,3.6c-0.7,6.4,5.7,5.1,11.5,5.2
	c1.2,0,2.9,0,3.4,0.8c0.6,0.8,0.4,2.7-0.2,3.4c-1.1,1.3-5.6,1-7.5,0.9C-1205.9,648.1-1204.9,647.8-1205.3,645"/>
<path class="st0" d="M-1404.6,645l-1.9,0c-0.5,3.1,0.8,4.5,3.4,4.8c2.2,0.3,6.1,0.2,8.4,0c2.7-0.2,4.9-0.5,5.5-2.9
	c0.6-2.7-0.2-5.1-2.5-5.6c-3-0.6-9.8,0.2-11.7-0.7c-1-0.5-1.2-2-0.8-3.3c0.8-2.2,9.5-1.6,11-1.2c1.6,0.4,1.6,0.9,1.7,2.6l2.1,0
	c0-3.1-1-4.1-3.9-4.5c-2.4-0.3-5.9-0.2-8.3,0c-2.7,0.3-4.5,0.9-4.8,3.6c-0.7,6.3,5.6,5.1,11.5,5.1c1.3,0,2.9,0,3.5,0.8
	c0.6,0.9,0.4,2.8-0.2,3.5c-1.1,1.2-5.6,1-7.5,0.9C-1405.2,648.1-1404.2,647.8-1404.6,645"/>
<polygon class="st0" points="-1262.8,648.1 -1276.2,648.1 -1276.2,642.7 -1263.5,642.6 -1263.4,640.8 -1276.2,640.8 -1276.2,636 
	-1262.8,635.9 -1262.8,634.1 -1278.3,634.1 -1278.3,649.9 -1262.8,649.9 "/>
<path class="st1" d="M-1355.3,623.3l5.5,0l0.1-17.8l-5.6,0C-1355.6,606.2-1355.6,622.5-1355.3,623.3"/>
<polygon class="st1" points="-1190,623.2 -1184.3,623.2 -1184.3,605.5 -1190,605.5 "/>
<path class="st0" d="M-1366.8,649.9l2.1,0c0-1.3-0.2-5.2,0-6.2c0.2-0.8,8.7-8.7,9.1-9.5c-3.5-0.1-2.7-0.2-6.3,3.6
	c-1.2,1.3-2.5,2.7-3.9,3.9c-1.5-1.3-4.2-4.1-5.9-5.8c-1.9-1.9-1.2-1.7-4.4-1.7c0.3,0.8,5.2,5.3,6.2,6.3
	C-1365.9,644.2-1366.7,642.3-1366.8,649.9"/>
<polygon class="st0" points="-1310.7,635.9 -1302.8,636 -1302.8,649.9 -1300.7,649.9 -1300.7,636 -1292.8,636 -1292.8,634.2 
	-1310.7,634.1 "/>
<path class="st2" d="M-1262.8,648.1c-0.2-0.3,0-0.2-0.6-0.2c-2.1-0.2-9.7,0.1-12.6,0l0-5.1c2-0.1,11.7,0.2,12.7-0.1
	c0.2-0.7,0.2-1.3,0-2c-1.6-0.5-10.2-0.1-12.7-0.1l0-4.4l11.6,0c0.7,0,1.3,0.1,1.7-0.2l-13.4,0.1l0.1,4.8l12.8,0l-0.1,1.8l-12.8,0.1
	l0,5.5L-1262.8,648.1z"/>
</svg>
