<?xml version="1.0" encoding="utf-8"?>
<!-- Generator: Adobe Illustrator 19.0.0, SVG Export Plug-In . SVG Version: 6.00 Build 0)  -->
<svg version="1.1" xmlns="http://www.w3.org/2000/svg" xmlns:xlink="http://www.w3.org/1999/xlink" x="0px" y="0px"
	 viewBox="-164 165 171 171" style="enable-background:new -164 165 171 171;" xml:space="preserve">
<style type="text/css">
	.st0{fill:#FFFFFF;}
</style>
<g id="Layer_4">
	<g>
		<path class="st0" d="M-113.4,267.5c7.9,6.2,17.6,9.9,28,9.9c10.4,0,20-3.7,28-9.9c9.9,5.9,18.3,14.8,24,25.6h6.1
			c-6-12.3-15-22.5-25.9-29.4c10.1-10,16.5-24.5,16.5-40.7c0-30-21.9-54.4-48.7-54.4c-26.9,0-48.7,24.4-48.7,54.4
			c0,16.2,6.4,30.7,16.5,40.6c-20.1,12.7-33.7,36.7-33.7,64.2v2.7h91.6v-5.5h-86.1C-145,300.1-132.1,278.5-113.4,267.5z
			 M-128.7,223.1c0-27,19.4-48.9,43.3-48.9c23.9,0,43.3,21.9,43.3,48.9S-61.6,272-85.4,272C-109.3,272-128.7,250-128.7,223.1z"/>
		<polygon class="st0" points="-8.8,292.3 -35.8,319.3 -45.9,309.1 -49.8,313 -35.8,327 -33.9,325 -31.9,323.1 -4.9,296.1 		"/>
	</g>
</g>
<g id="Layer_3">
</g>
</svg>
