<?xml version="1.0" encoding="utf-8"?>
<!-- Generator: Adobe Illustrator 19.0.0, SVG Export Plug-In . SVG Version: 6.00 Build 0)  -->
<svg version="1.1" xmlns="http://www.w3.org/2000/svg" xmlns:xlink="http://www.w3.org/1999/xlink" x="0px" y="0px"
	 viewBox="-164 165 171 171" style="enable-background:new -164 165 171 171;" xml:space="preserve">
<style type="text/css">
	.st0{fill:#FFFFFF;}
</style>
<g id="Layer_2">
	<g>
		<path class="st0" d="M-138.3,241.5v75.6c0,2.2,1.8,3.9,4,3.9h107.4c2.2,0,4-1.8,4-3.9v-75.6c0-2.2-1.8-3.9-4-3.9h-107.4
			C-136.5,237.6-138.3,239.4-138.3,241.5L-138.3,241.5L-138.3,241.5z M-146.2,241.5c0-3.2,1.3-6.2,3.5-8.4c2.2-2.2,5.3-3.5,8.4-3.5
			h107.4c6.6,0,11.9,5.3,11.9,11.9v75.6c0,3.2-1.3,6.2-3.5,8.4c-2.2,2.2-5.3,3.5-8.4,3.5h-107.4c-6.6,0-11.9-5.3-11.9-11.9V241.5
			L-146.2,241.5L-146.2,241.5z"/>
		<path class="st0" d="M-114.4,203.8c0-14.3,11.6-25.9,25.9-25.9h13.9c14.3,0,25.9,11.6,25.9,25.9V218c0,0,1.1,2.7,4.2,2.7
			c3.1,0,3.7-2.7,3.7-2.7v-14.2c0-18.7-15.1-33.8-33.8-33.8h-13.9c-18.7,0-33.8,15.2-33.8,33.8v29.8l8-1.5L-114.4,203.8
			L-114.4,203.8z"/>
		<path class="st0" d="M-82.5,259.6v37.5c0,2.2,1.8,4,4,4c2.2,0,4-1.8,4-4v-37.5c0-2.2-1.8-4-4-4C-80.7,255.6-82.5,257.4-82.5,259.6
			L-82.5,259.6z"/>
	</g>
</g>
<g id="Layer_3">
</g>
</svg>
