<?xml version="1.0" encoding="utf-8"?>
<!-- Generator: Adobe Illustrator 19.0.0, SVG Export Plug-In . SVG Version: 6.00 Build 0)  -->
<svg version="1.1" xmlns="http://www.w3.org/2000/svg" xmlns:xlink="http://www.w3.org/1999/xlink" x="0px" y="0px"
	 viewBox="-164 165 171 171" style="enable-background:new -164 165 171 171;" xml:space="preserve">
<style type="text/css">
	.st0{fill:#FFFFFF;}
	.st1{font-family:'HelveticaCE-Bold';}
	.st2{font-size:0.6845px;}
</style>
<g id="Layer_2">
	<g transform="translate(-1489.8356,-4385.8625)">
		<path class="st0" d="M1332.5,4717.2c0-2.6,0.8-8.5,1.7-12.8c5.1-24.7,22.2-45.7,45.4-55.9c7.8-3.4,15.9-5.5,24.8-6.4
			c3.5-0.3,10.6-0.3,14.1,0c14.9,1.4,28.3,6.6,40.1,15.3c15.4,11.5,26.2,28.4,30.1,47c0.9,4.3,1.7,10.2,1.7,12.8v0.9h-5.3h-5.3
			l-0.1-1.7c-0.2-3.3-0.5-5.6-1-8.3c-0.3-1.5-0.6-3-0.6-3.2c-0.2-1.3-2-7.1-3.1-9.9c-1.3-3.3-3.4-7.7-4.5-9.2
			c-0.2-0.3-0.4-0.7-0.6-1c-1.9-3.4-6-8.8-9.6-12.6c-3.8-3.9-9.9-8.7-13.9-10.9c-0.2-0.1-0.5-0.3-0.8-0.5c-1.5-1-5.9-3.1-9.2-4.5
			c-2.8-1.1-8.5-2.9-9.9-3.1c-0.3,0-1.7-0.3-3.2-0.6c-3.8-0.7-6.6-1-12.1-1c-5.4,0-8.2,0.2-12.1,1c-1.5,0.3-3,0.6-3.2,0.6
			c-1.3,0.2-7.1,2-9.9,3.1c-3.3,1.3-7.7,3.4-9.2,4.5c-0.3,0.2-0.7,0.4-1,0.6c-3.4,1.9-8.8,6-12.6,9.6c-3.9,3.8-8.7,9.9-10.9,13.9
			c-0.1,0.2-0.3,0.5-0.5,0.8c-1,1.5-3.1,5.9-4.5,9.2c-1.1,2.8-2.9,8.5-3.1,9.9c0,0.3-0.3,1.7-0.6,3.2c-0.5,2.7-0.8,5.1-1,8.3
			l-0.1,1.7h-5.1h-5.1V4717.2L1332.5,4717.2z M1407.9,4630.3c-5.6-0.5-11.9-2.6-16.8-5.6c-4.9-3-9.3-7.5-12.4-12.4
			c-4.1-6.7-6.2-15.1-5.7-22.7c0.7-9.5,4.5-17.9,11.1-24.5c6.6-6.6,15-10.4,24.5-11.1c7.6-0.6,16.1,1.5,22.7,5.7
			c4.9,3,9.3,7.5,12.4,12.4c1.4,2.3,3,5.6,3.8,8.2c4,12,1.8,24.9-5.9,35.2c-1.6,2.1-5.1,5.6-7.2,7.2
			C1426.8,4628.4,1417.4,4631.1,1407.9,4630.3L1407.9,4630.3z M1416.7,4620.1c4-0.8,8-2.6,11.1-4.7c2.1-1.5,5.1-4.5,6.6-6.6
			c2.2-3.1,3.9-7,4.8-11.1c0.3-1.5,0.4-2.3,0.4-5.3s-0.1-3.8-0.4-5.3c-0.9-4.1-2.6-8.1-4.8-11.1c-1.5-2.1-4.5-5.1-6.6-6.6
			c-3.1-2.2-7-3.9-11.1-4.8c-1.5-0.3-2.3-0.4-5.3-0.4c-3,0-3.8,0.1-5.3,0.4c-4.1,0.9-8.1,2.6-11.1,4.8c-2.1,1.5-5.1,4.5-6.6,6.6
			c-2.2,3.1-3.9,7-4.8,11.1c-0.3,1.5-0.4,2.3-0.4,5.3s0.1,3.8,0.4,5.3c0.6,2.8,1.3,4.9,2.5,7.3c1.4,2.9,3,5,5.3,7.4
			c2.3,2.3,4.5,3.9,7.4,5.3c3,1.5,6.1,2.4,9.3,2.8C1410,4620.7,1414.8,4620.5,1416.7,4620.1z"/>
	</g>
	<text transform="matrix(1 0 0 1 -157.3633 334.3047)" class="st0 st1 st2">Created by Hector</text>
	<text transform="matrix(1 0 0 1 -157.3633 334.9893)" class="st0 st1 st2">from the Noun Project</text>
</g>
<g id="Layer_3">
</g>
</svg>
